<?xml version="1.0" encoding="utf-8" ?><svg xmlns="http://www.w3.org/2000/svg" xmlns:xlink="http://www.w3.org/1999/xlink" width="2674" height="480" viewBox="0 0 2674 480"><path fill="white" d="M845.014 52.8325L949.706 52.8325L1115.83 428.033L1005.36 428.033L976.079 355.072L951.5 355.072L817.015 355.072L787.897 428L679.492 428L845.014 52.8325ZM897.5 276.884L944.696 276.884L911.468 193.909C908.865 187.412 899.069 161.837 896.28 157.639L864.66 236.485C859.62 249.051 853.776 264.878 848.378 276.884L897.5 276.884Z"/><path fill="white" d="M1911.61 133.398C1913.56 132.995 1916.39 133.092 1918.43 132.955C1988.61 128.247 2058.88 164.091 2078.46 235.092C2085.47 260.533 2085.83 282.341 2082.86 308.51L1872.07 308.51C1874.45 316.933 1878.55 324.772 1884.11 331.532C1896.17 345.975 1914.63 353.319 1933 354.683C1964.97 357.055 1985.96 349.94 2010.13 329.778L2060.34 381.991L2063.79 385.812C2063 386.633 2062.21 387.45 2061.41 388.261C2028.89 421.294 1987.19 432.784 1941.78 432.946C1890.14 433.131 1845.77 419.558 1808.61 382.977C1821.24 377.62 1838.54 372.101 1847.45 362.721C1847.39 359.671 1847.93 356.527 1846.62 353.594C1840.46 339.793 1835.47 325.352 1828.19 312.103C1821.82 300.492 1810.14 306.903 1800.97 310.86C1791.53 289.978 1782.36 268.235 1773.17 247.182C1777.88 225.568 1787.66 205.383 1801.7 188.285C1829.57 154.338 1868.63 137.607 1911.61 133.398ZM1938.5 254.928L1989.69 254.928C1981.18 221.307 1958.81 202.113 1923.1 205.341C1891.57 209.399 1878.21 225.347 1870.14 254.928L1938.5 254.928Z"/><path fill="white" d="M2234.52 133.407C2275.91 129.004 2334.31 137.83 2370.83 157.281L2340.19 226.5C2309.05 209.071 2286.6 205.989 2251.3 205.076C2208.09 203.959 2188.97 236.275 2241.27 245.103C2279.84 251.615 2328.38 252.999 2358.8 280.339C2389.21 307.668 2387.73 364.04 2359.02 392.265C2326.97 424.388 2285.59 431.375 2241.95 432.918C2197.34 433.396 2147.89 424.465 2108.62 402.915L2139.13 332.996C2173.1 353.164 2215.24 361.809 2254.63 359.438C2265.68 360.025 2288.76 352.833 2286.1 338.189C2282.99 321.109 2228.23 317.984 2215.37 316.022C2203.71 314.285 2192.14 311.942 2180.73 309C2165.72 304.992 2151.87 299.048 2139.62 289.19C2106.88 262.845 2107.2 206.89 2133.48 176.112C2158.35 146.981 2197.39 136.625 2234.52 133.407Z"/><path fill="white" d="M1271.57 133.402C1296.65 130.112 1334.43 134.902 1357.47 144.736C1391.13 159.11 1412.26 179.058 1426.34 212.567L1347.47 252.796C1331.45 222.807 1305.65 206.559 1271.16 216.054C1255.96 220.135 1243.06 230.199 1235.41 243.95C1224.92 262.578 1224.36 286.138 1229.5 306.823C1239.91 348.716 1290.79 364.974 1325.13 340.498C1335.57 333.06 1341.35 323.935 1347.51 312.764C1362.63 320.086 1378.54 328.587 1393.59 336.269L1426.31 352.924C1421.44 364.541 1415.86 375.209 1407.67 384.866C1352.77 449.539 1236.75 445.748 1174.92 394.464C1145.76 370.454 1127.48 335.736 1124.18 298.113C1115.46 204.147 1181.39 141.775 1271.57 133.402Z"/><path fill="white" d="M1558.27 138.023L1559.02 138.253C1560.15 140.865 1559.57 183.455 1559.55 189.697C1537.02 203.352 1520.81 221.267 1512 246.438C1502.85 272.728 1504.5 301.575 1516.59 326.651C1528.81 351.717 1550.47 370.913 1576.82 380.03C1603.1 389.126 1631.93 387.374 1656.91 375.162C1684.4 361.711 1701.47 339.97 1711.26 311.453C1719.16 327.451 1728.65 351.135 1736 367.99C1730.73 375.14 1726.38 380.202 1720.47 386.857C1704.53 402.592 1688.51 414.023 1667.54 422.442C1630 437.352 1588.08 436.836 1550.91 421.006C1513.63 404.94 1484.27 374.711 1469.29 336.98C1454.3 299.56 1454.92 257.694 1471.02 220.735C1488.17 181.044 1518.48 153.815 1558.27 138.023Z"/><path fill="white" d="M499.392 480C492.158 475.69 446.134 408.731 438.093 397.66C406.44 354.078 355.032 285.541 341.679 232.77C330.671 189.326 337.563 143.282 360.81 104.967C383.508 67.1652 420.258 39.8954 463.016 29.1262C505.869 18.3714 551.241 25.1382 589.091 47.9291C627.29 70.8808 654.779 108.097 665.485 151.356C688.523 244.665 622.759 320.785 572.488 392.211C553.824 418.73 533.05 449.928 512.972 474.937C511.364 476.961 509.403 478.676 507.182 480L499.392 480ZM484.815 156.673L500.653 109.151L516.413 156.571L563.46 139.427L536.119 181.361L578.976 207.393L529.157 212.205L535.531 261.922L500.572 225.906L465.608 261.977L472.073 212.257L422.11 207.392L465.043 181.304L437.781 140.012C409.234 176.329 415.555 228.915 451.895 257.432C488.234 285.949 540.815 279.586 569.303 243.224C597.759 206.903 591.405 154.394 555.107 125.909C518.808 97.4241 466.295 103.736 437.781 140.012L484.815 156.673Z"/><path fill="white" d="M484.815 156.673L500.653 109.151L516.413 156.571L563.46 139.427L536.119 181.361L578.976 207.393L529.157 212.205L535.531 261.922L500.572 225.906L465.608 261.977L472.073 212.257L422.11 207.392L465.043 181.304L437.781 140.012L484.815 156.673Z"/><path fill="white" d="M40.3854 32.8325L275.229 32.8325L275.254 199.15C275.256 256.094 283.276 336.051 239.022 378.657C182.526 433.048 61.4513 426.103 8.32409 369.217C5.83531 366.578 2.55961 362.819 0 360.721L0 360.318C19.4977 338.322 39.2216 314.136 58.246 291.564C73.2317 310.556 91.1114 327.372 116.135 330.38C146.419 334.019 167.482 317.889 169.48 287.004C170.766 267.116 170.187 246.96 170.182 227.017L170.113 114.931L40.3854 114.931L40.3854 32.8325Z"/><path fill="white" d="M2432.13 332.996C2434.78 334.527 2437.45 336.017 2440.14 337.464C2473.21 355.137 2526.92 365.846 2564.73 356.511C2569.52 354.994 2575.31 351.164 2577.49 346.434C2585.46 329.116 2561.82 324.266 2551 322.273C2502.95 313.423 2429.16 314.503 2411.42 257.431C2404.37 234.997 2406.52 210.678 2417.4 189.83C2456.45 116.151 2599.62 123.076 2663.83 157.281L2633.19 226.5C2603.32 208.992 2565.83 202.306 2531.54 206.047C2523.92 206.924 2510.71 209.591 2506.35 216.751C2491.79 241.322 2533.1 244.854 2547.77 247.177C2606.63 256.493 2662.97 258.47 2674 328.291L2674 344.807C2655.88 457.224 2477.72 444.685 2401.62 402.915L2432.13 332.996Z"/><path fill="white" d="M1604.55 0L1608.93 0C1611.6 0.349964 1614.26 0.802348 1616.89 1.35615C1630.69 4.25021 1642.75 12.5873 1650.33 24.482C1657.57 35.8342 1659.98 49.608 1657.02 62.7449C1653.45 78.6809 1644.21 88.4877 1630.88 96.9656L1630.88 139.84L1741.25 139.84L1741.25 187.32L1630.88 187.32L1630.88 211.027L1745.46 211.027L1794.79 324.395L1817.9 314.578C1823.43 328.675 1830.52 344.301 1836.52 358.377L1770.08 386.794L1714.36 258.706L1583.25 258.708L1583.25 96.9589C1581.5 95.9627 1579.79 94.8857 1578.13 93.7313C1566.68 85.5848 1558.81 74.0439 1556.46 60.0893C1554.21 46.8675 1557.33 33.2965 1565.12 22.3815C1575.33 7.98101 1587.76 2.83487 1604.55 0Z"/></svg>